# xmcd CD database file
#
# Track frame offsets:
#	150
#	60585
#	122629
#	168430
#	196888
#	223279
#
# Disc length: 3128 seconds
#
# Revision: 0
# Processed by: cddbd v1.5.2PL0 Copyright (c) Steve Scherf et al.
# Submitted via: CDex 1.70beta2
#
DISCID=550c3606
DTITLE=Eckhart Tolle - Whispers Of Now
DYEAR=1900
DGENRE=New Age
TTITLE0=In The Now
TTITLE1=Listen To The Silence
TTITLE2=The Joy Of Being
TTITLE3=Watch The Thinker
TTITLE4=Being
TTITLE5=Your Life Is Now
EXTD=
EXTT0=
EXTT1=
EXTT2=
EXTT3=
EXTT4=
EXTT5=
PLAYORDER=
